<svg width="18" height="18" viewBox="0 0 18 18" fill="none" xmlns="http://www.w3.org/2000/svg">
<path d="M8.55854 8.55853C9.12278 8.55853 9.67435 8.39122 10.1435 8.07774C10.6126 7.76427 10.9783 7.31871 11.1942 6.79742C11.4102 6.27613 11.4666 5.70252 11.3566 5.14912C11.2465 4.59573 10.9748 4.0874 10.5758 3.68842C10.1768 3.28944 9.6685 3.01773 9.1151 2.90766C8.56171 2.79758 7.98809 2.85407 7.4668 3.07C6.94551 3.28593 6.49996 3.65158 6.18649 4.12073C5.87301 4.58988 5.70569 5.14145 5.70569 5.70569C5.70569 6.46231 6.00626 7.18794 6.54127 7.72295C7.07629 8.25797 7.80192 8.55853 8.55854 8.55853ZM8.55854 4.27926C8.84066 4.27926 9.11645 4.36292 9.35102 4.51966C9.58559 4.6764 9.76842 4.89917 9.87638 5.15982C9.98435 5.42046 10.0126 5.70727 9.95756 5.98397C9.90252 6.26067 9.76666 6.51483 9.56717 6.71432C9.36769 6.91381 9.11352 7.04966 8.83682 7.1047C8.56012 7.15974 8.27332 7.13149 8.01267 7.02353C7.75203 6.91557 7.52925 6.73274 7.37251 6.49817C7.21578 6.26359 7.13212 5.98781 7.13212 5.70569C7.13212 5.32738 7.2824 4.96456 7.54991 4.69705C7.81741 4.42955 8.18023 4.27926 8.55854 4.27926ZM11.4114 15.712L17.1171 17.1014V9.61623C17.1169 9.15683 16.9689 8.70968 16.695 8.34092C16.421 7.97215 16.0356 7.70136 15.5958 7.5686L14.0981 7.06935C14.2076 6.62449 14.2634 6.16811 14.2642 5.70997C14.2642 4.19672 13.6631 2.74546 12.5931 1.67543C11.5231 0.605406 10.0718 0.00427246 8.55854 0.00427246C7.0453 0.00427246 5.59403 0.605406 4.52401 1.67543C3.45398 2.74546 2.85285 4.19672 2.85285 5.70997C2.85496 5.99948 2.8788 6.28843 2.92417 6.57438C2.60028 6.44525 2.24968 6.39747 1.90304 6.43519C1.55641 6.47292 1.2243 6.59501 0.935767 6.79079C0.647237 6.98657 0.411076 7.25007 0.247945 7.55824C0.0848145 7.8664 -0.000316103 8.20985 8.81987e-07 8.55853V15.5138L5.69357 17.1406L11.4114 15.712ZM5.53238 2.68452C6.33635 1.89197 7.42093 1.44922 8.54986 1.45272C9.67879 1.45622 10.7606 1.90569 11.5596 2.70322C12.3587 3.50074 12.8102 4.5817 12.8158 5.71063C12.8214 6.83955 12.3807 7.92496 11.5897 8.73042L8.55854 11.6967L5.53238 8.73612C4.72993 7.93361 4.27912 6.84521 4.27912 5.71032C4.27912 4.57544 4.72993 3.48703 5.53238 2.68452ZM1.42642 8.55853C1.42552 8.4409 1.45418 8.32493 1.50975 8.22125C1.56533 8.11757 1.64605 8.02951 1.74452 7.96514C1.84751 7.89754 1.96617 7.85758 2.08907 7.84908C2.21198 7.84059 2.335 7.86386 2.44632 7.91664L3.46906 8.28609C3.74269 8.82795 4.10067 9.32291 4.52961 9.75245L8.55854 13.6937L12.5932 9.74746C12.9899 9.35131 13.3263 8.89907 13.5917 8.40519L15.1729 8.93368C15.3218 8.97628 15.4528 9.0662 15.5461 9.18986C15.6394 9.31351 15.6899 9.46418 15.6899 9.61908V15.2884L11.4114 14.2428L5.71996 15.6693L1.42642 14.4397V8.55853Z" fill="#374957"/>
</svg>
