<svg width="18" height="17" viewBox="0 0 18 17" fill="none" xmlns="http://www.w3.org/2000/svg">
<path d="M15.4769 0.384766H2.21099C1.6246 0.384766 1.06222 0.617708 0.647583 1.03235C0.232942 1.44699 0 2.00936 0 2.59575L0 16.5987H17.6879V2.59575C17.6879 2.00936 17.4549 1.44699 17.0403 1.03235C16.6257 0.617708 16.0633 0.384766 15.4769 0.384766ZM2.21099 1.85876H15.4769C15.6724 1.85876 15.8598 1.9364 15.998 2.07462C16.1362 2.21283 16.2139 2.40029 16.2139 2.59575V3.08733L10.4078 8.89411C9.9925 9.3078 9.43016 9.54006 8.84394 9.54006C8.25772 9.54006 7.69539 9.3078 7.28004 8.89411L1.47399 3.08733V2.59575C1.47399 2.40029 1.55164 2.21283 1.68985 2.07462C1.82806 1.9364 2.01552 1.85876 2.21099 1.85876ZM1.47399 15.1247V5.17523L6.23793 9.93622C6.92969 10.6262 7.86688 11.0137 8.84394 11.0137C9.82101 11.0137 10.7582 10.6262 11.45 9.93622L16.2139 5.17523V15.1247H1.47399Z" fill="#374957"/>
</svg>
