<svg width="18" height="19" viewBox="0 0 18 19" fill="none" xmlns="http://www.w3.org/2000/svg">
<path d="M10.4655 12.4063C8.31963 11.4977 6.61324 9.78734 5.70964 7.63939L8.21543 5.12919L3.60184 0.51191L1.26483 2.84819C0.85948 3.25585 0.538996 3.73985 0.321916 4.27217C0.104835 4.8045 -0.0045312 5.37459 0.000143789 5.94946C0.000143789 11.2912 6.81882 18.1099 12.1606 18.1099C12.7354 18.1149 13.3055 18.0057 13.8377 17.7886C14.37 17.5715 14.8538 17.2508 15.2611 16.8452L17.5981 14.5082L12.9808 9.89091L10.4655 12.4063ZM14.2183 15.8031C13.9476 16.0714 13.6263 16.2832 13.2731 16.4261C12.9198 16.5691 12.5416 16.6404 12.1606 16.6359C7.56687 16.6359 1.47413 10.5432 1.47413 5.94946C1.46979 5.56831 1.54117 5.19009 1.68413 4.83674C1.82709 4.48339 2.03879 4.16194 2.30694 3.89103L3.60184 2.59613L6.13489 5.12919L3.97181 7.29227L4.15237 7.74478C4.68393 9.16667 5.5149 10.4577 6.58899 11.5304C7.66308 12.6031 8.95519 13.4324 10.3778 13.9621L10.8244 14.1323L12.9808 11.9751L15.5139 14.5082L14.2183 15.8031ZM10.3181 1.89599V0.421997C12.272 0.424143 14.1454 1.20131 15.527 2.58298C16.9087 3.96465 17.6859 5.83797 17.688 7.79195H16.214C16.2123 6.22878 15.5905 4.73014 14.4852 3.62481C13.3799 2.51949 11.8812 1.89774 10.3181 1.89599ZM10.3181 4.84397V3.36998C11.4905 3.37115 12.6146 3.83741 13.4436 4.66644C14.2726 5.49546 14.7389 6.61953 14.74 7.79195H13.2661C13.2661 7.0101 12.9555 6.26026 12.4026 5.70741C11.8498 5.15456 11.0999 4.84397 10.3181 4.84397Z" fill="#374957"/>
</svg>
