<svg width="68" height="68" viewBox="0 0 68 68" fill="none" xmlns="http://www.w3.org/2000/svg">
<g clip-path="url(#clip0_155_5671)">
<path d="M61.634 11.943H47.6614V6.35398C47.6614 4.87168 47.0725 3.45009 46.0244 2.40194C44.9762 1.3538 43.5547 0.764954 42.0724 0.764954L25.3053 0.764954C23.823 0.764954 22.4014 1.3538 21.3532 2.40194C20.3051 3.45009 19.7162 4.87168 19.7162 6.35398V11.943H5.74365V17.532H11.3327V59.4498C11.3327 61.6732 12.2159 63.8056 13.7882 65.3778C15.3604 66.9501 17.4928 67.8333 19.7162 67.8333H47.6614C49.8848 67.8333 52.0172 66.9501 53.5895 65.3778C55.1617 63.8056 56.0449 61.6732 56.0449 59.4498V17.532H61.634V11.943ZM25.3053 6.35398H42.0724V11.943H25.3053V6.35398ZM50.4559 59.4498C50.4559 60.1909 50.1615 60.9017 49.6374 61.4258C49.1133 61.9499 48.4025 62.2443 47.6614 62.2443H19.7162C18.9751 62.2443 18.2643 61.9499 17.7402 61.4258C17.2161 60.9017 16.9217 60.1909 16.9217 59.4498V17.532H50.4559V59.4498Z" fill="#0096FF"/>
<path d="M30.8937 28.7084H25.3047V51.0645H30.8937V28.7084Z" fill="#0096FF"/>
<path d="M42.0729 28.7084H36.4839V51.0645H42.0729V28.7084Z" fill="#0096FF"/>
</g>
<defs>
<clipPath id="clip0_155_5671">
<rect width="67.0684" height="67.0684" fill="white" transform="translate(0.153809 0.764954)"/>
</clipPath>
</defs>
</svg>
