<svg width="68" height="68" viewBox="0 0 68 68" fill="none" xmlns="http://www.w3.org/2000/svg">
<g clip-path="url(#clip0_155_5647)">
<path d="M61.7621 12.0056H47.7736V6.41022C47.7736 4.92623 47.1841 3.50301 46.1347 2.45367C45.0854 1.40433 43.6622 0.814819 42.1782 0.814819L25.392 0.814819C23.908 0.814819 22.4848 1.40433 21.4355 2.45367C20.3861 3.50301 19.7966 4.92623 19.7966 6.41022V12.0056H5.80811V17.601H11.4035V59.5665C11.4035 61.7925 12.2878 63.9273 13.8618 65.5013C15.4358 67.0753 17.5706 67.9596 19.7966 67.9596H47.7736C49.9996 67.9596 52.1344 67.0753 53.7084 65.5013C55.2824 63.9273 56.1667 61.7925 56.1667 59.5665V17.601H61.7621V12.0056ZM25.392 6.41022H42.1782V12.0056H25.392V6.41022ZM50.5713 59.5665C50.5713 60.3085 50.2765 61.0201 49.7519 61.5448C49.2272 62.0694 48.5156 62.3642 47.7736 62.3642H19.7966C19.0546 62.3642 18.343 62.0694 17.8183 61.5448C17.2937 61.0201 16.9989 60.3085 16.9989 59.5665V17.601H50.5713V59.5665Z" fill="#009743"/>
<path d="M30.9865 28.7901H25.3911V51.1717H30.9865V28.7901Z" fill="#009743"/>
<path d="M42.1789 28.7901H36.5835V51.1717H42.1789V28.7901Z" fill="#009743"/>
</g>
<defs>
<clipPath id="clip0_155_5647">
<rect width="67.1448" height="67.1448" fill="white" transform="translate(0.211914 0.814819)"/>
</clipPath>
</defs>
</svg>
