<svg width="24" height="24" viewBox="0 0 24 24" fill="none" xmlns="http://www.w3.org/2000/svg">
<path d="M0 21.6H24V24H0V21.6ZM2.4 12H4.8V20.4H2.4V12ZM8.4 12H10.8V20.4H8.4V12ZM13.2 12H15.6V20.4H13.2V12ZM19.2 12H21.6V20.4H19.2V12ZM0 6L12 0L24 6V10.8H0V6ZM2.4 7.4832V8.4H21.6V7.4832L12 2.6832L2.4 7.4832ZM12 7.2C11.6817 7.2 11.3765 7.07357 11.1515 6.84853C10.9264 6.62348 10.8 6.31826 10.8 6C10.8 5.68174 10.9264 5.37652 11.1515 5.15147C11.3765 4.92643 11.6817 4.8 12 4.8C12.3183 4.8 12.6235 4.92643 12.8485 5.15147C13.0736 5.37652 13.2 5.68174 13.2 6C13.2 6.31826 13.0736 6.62348 12.8485 6.84853C12.6235 7.07357 12.3183 7.2 12 7.2Z" fill="white"/>
</svg>
