<svg width="24" height="25" viewBox="0 0 24 25" fill="none" xmlns="http://www.w3.org/2000/svg">
<path d="M7.24 2.5H5.34C3.15 2.5 2 3.65 2 5.83V7.73C2 9.91 3.15 11.06 5.33 11.06H7.23C9.41 11.06 10.56 9.91 10.56 7.73V5.83C10.57 3.65 9.42 2.5 7.24 2.5Z" fill="white"/>
<path d="M18.6699 2.5H16.7699C14.5899 2.5 13.4399 3.65 13.4399 5.83V7.73C13.4399 9.91 14.5899 11.06 16.7699 11.06H18.6699C20.8499 11.06 21.9999 9.91 21.9999 7.73V5.83C21.9999 3.65 20.8499 2.5 18.6699 2.5Z" fill="white"/>
<path d="M18.6699 13.93H16.7699C14.5899 13.93 13.4399 15.08 13.4399 17.26V19.16C13.4399 21.34 14.5899 22.49 16.7699 22.49H18.6699C20.8499 22.49 21.9999 21.34 21.9999 19.16V17.26C21.9999 15.08 20.8499 13.93 18.6699 13.93Z" fill="white"/>
<path d="M7.24 13.93H5.34C3.15 13.93 2 15.08 2 17.26V19.16C2 21.35 3.15 22.5 5.33 22.5H7.23C9.41 22.5 10.56 21.35 10.56 19.17V17.27C10.57 15.08 9.42 13.93 7.24 13.93Z" fill="white"/>
</svg>
