<svg width="28" height="24" viewBox="0 0 28 24" fill="none" xmlns="http://www.w3.org/2000/svg">
<path d="M23.6993 5.52753C23.4581 5.10982 23.1119 4.7625 22.6949 4.52007C22.2779 4.27764 21.8048 4.14856 21.3225 4.14565H17.9645V1.38188C17.9645 1.01538 17.8189 0.663898 17.5597 0.404744C17.3006 0.145591 16.9491 0 16.5826 0H2.76377C2.03077 0 1.32779 0.291182 0.809488 0.809488C0.291182 1.32779 0 2.03077 0 2.76377V16.5826C0.000497121 17.0673 0.128436 17.5433 0.370982 17.9629C0.613529 18.3825 0.962153 18.7309 1.38188 18.9733C1.33241 20.256 1.79452 21.5059 2.66657 22.4479C3.53863 23.3899 4.74918 23.9469 6.03192 23.9964C7.31466 24.0459 8.56452 23.5838 9.50655 22.7117C10.4486 21.8397 11.0056 20.6291 11.0551 19.3464H15.3389C15.4917 20.5026 16.0595 21.5639 16.9365 22.3326C17.8136 23.1014 18.9401 23.5252 20.1064 23.5252C21.2727 23.5252 22.3992 23.1014 23.2763 22.3326C24.1533 21.5639 24.7211 20.5026 24.8739 19.3464C25.6069 19.3464 26.3099 19.0552 26.8282 18.5369C27.3465 18.0186 27.6377 17.3156 27.6377 16.5826V12.4369C27.6355 12.1848 27.5689 11.9375 27.4442 11.7184L23.6993 5.52753ZM17.9645 6.90942H21.3225L23.8098 11.0551H17.9645V6.90942ZM6.21847 20.7282C5.80851 20.7282 5.40775 20.6067 5.06687 20.3789C4.726 20.1511 4.46032 19.8274 4.30343 19.4487C4.14655 19.0699 4.1055 18.6531 4.18548 18.251C4.26546 17.8489 4.46288 17.4796 4.75277 17.1897C5.04266 16.8998 5.412 16.7024 5.81409 16.6224C6.21617 16.5424 6.63295 16.5835 7.01171 16.7404C7.39047 16.8973 7.7142 17.1629 7.94196 17.5038C8.16973 17.8447 8.2913 18.2455 8.2913 18.6554C8.2913 19.2052 8.07291 19.7324 7.68418 20.1211C7.29545 20.5099 6.76822 20.7282 6.21847 20.7282ZM20.0373 20.7282C19.6273 20.7282 19.2266 20.6067 18.8857 20.3789C18.5448 20.1511 18.2792 19.8274 18.1223 19.4487C17.9654 19.0699 17.9243 18.6531 18.0043 18.251C18.0843 17.8489 18.2817 17.4796 18.5716 17.1897C18.8615 16.8998 19.2308 16.7024 19.6329 16.6224C20.035 16.5424 20.4518 16.5835 20.8305 16.7404C21.2093 16.8973 21.533 17.1629 21.7608 17.5038C21.9886 17.8447 22.1101 18.2455 22.1101 18.6554C22.1101 19.2052 21.8917 19.7324 21.503 20.1211C21.1143 20.5099 20.5871 20.7282 20.0373 20.7282Z" fill="white"/>
</svg>
