<svg width="35" height="35" viewBox="0 0 35 35" fill="none" xmlns="http://www.w3.org/2000/svg">
<path d="M32.0837 5.83333H24.792V2.91667C24.792 2.14312 24.4847 1.40125 23.9377 0.854272C23.3907 0.307291 22.6489 0 21.8753 0L13.1253 0C12.3518 0 11.6099 0.307291 11.0629 0.854272C10.5159 1.40125 10.2087 2.14312 10.2087 2.91667V5.83333H2.91699V8.75H5.83366V30.625C5.83366 31.7853 6.2946 32.8981 7.11507 33.7186C7.93554 34.5391 9.04834 35 10.2087 35H24.792C25.9523 35 27.0651 34.5391 27.8856 33.7186C28.7061 32.8981 29.167 31.7853 29.167 30.625V8.75H32.0837V5.83333ZM13.1253 2.91667H21.8753V5.83333H13.1253V2.91667ZM26.2503 30.625C26.2503 31.0118 26.0967 31.3827 25.8232 31.6562C25.5497 31.9297 25.1788 32.0833 24.792 32.0833H10.2087C9.82189 32.0833 9.45095 31.9297 9.17746 31.6562C8.90397 31.3827 8.75033 31.0118 8.75033 30.625V8.75H26.2503V30.625Z" fill="#009743"/>
<path d="M16.0417 14.5824H13.125V26.2491H16.0417V14.5824Z" fill="#009743"/>
<path d="M21.8757 14.5824H18.959V26.2491H21.8757V14.5824Z" fill="#009743"/>
</svg>
