<svg width="24" height="28" viewBox="0 0 24 28" fill="none" xmlns="http://www.w3.org/2000/svg">
<path d="M11.5294 3.29412C14.7082 3.29412 19.7647 5.6 19.7647 11.7765C19.7647 15.3341 16.9318 19.4682 11.5294 23.8329C6.12706 19.4682 3.29412 15.3176 3.29412 11.7765C3.29412 5.6 8.35059 3.29412 11.5294 3.29412ZM11.5294 0C6.14353 0 0 4.05176 0 11.7765C0 16.9153 3.83765 22.3341 11.5294 28C19.2212 22.3341 23.0588 16.9153 23.0588 11.7765C23.0588 4.05176 16.9153 0 11.5294 0Z" fill="black"/>
<path d="M11.5295 8.23529C9.7177 8.23529 8.23535 9.71764 8.23535 11.5294C8.23535 13.3412 9.7177 14.8235 11.5295 14.8235C13.3412 14.8235 14.8236 13.3412 14.8236 11.5294C14.8236 9.71764 13.3412 8.23529 11.5295 8.23529Z" fill="black"/>
</svg>
