<svg width="22" height="24" viewBox="0 0 22 24" fill="none" xmlns="http://www.w3.org/2000/svg">
<path d="M18.9555 2.9H17.7833V0.555557H15.4388V2.9H6.06106V0.555557H3.71662V2.9H2.5444C1.24323 2.9 0.211673 3.955 0.211673 5.24445L0.199951 21.6556C0.199951 22.2773 0.446954 22.8737 0.886623 23.3133C1.32629 23.753 1.92261 24 2.5444 24H18.9555C20.245 24 21.3 22.945 21.3 21.6556V5.24445C21.3 3.955 20.245 2.9 18.9555 2.9ZM18.9555 21.6556H2.5444V9.93334H18.9555V21.6556ZM7.23328 14.6222H4.88884V12.2778H7.23328V14.6222ZM11.9222 14.6222H9.57773V12.2778H11.9222V14.6222ZM16.6111 14.6222H14.2666V12.2778H16.6111V14.6222ZM7.23328 19.3111H4.88884V16.9667H7.23328V19.3111ZM11.9222 19.3111H9.57773V16.9667H11.9222V19.3111ZM16.6111 19.3111H14.2666V16.9667H16.6111V19.3111Z" fill="#009743"/>
</svg>
