<svg width="22" height="21" viewBox="0 0 22 21" fill="none" xmlns="http://www.w3.org/2000/svg">
<path d="M10.5712 2.54626C7.6602 2.54626 5.29446 4.90001 5.29446 7.79626V10.325C5.29446 10.8588 5.0658 11.6725 4.79317 12.1275L3.78179 13.7988C3.15738 14.8313 3.58831 15.9775 4.73161 16.3625C8.52207 17.6225 12.6115 17.6225 16.402 16.3625C17.4662 16.0125 17.9323 14.7613 17.3518 13.7988L16.3404 12.1275C16.0766 11.6725 15.848 10.8588 15.848 10.325V7.79626C15.848 4.90876 13.4734 2.54626 10.5712 2.54626Z" stroke="black" stroke-width="1.31919" stroke-miterlimit="10" stroke-linecap="round"/>
<path d="M12.1981 2.80001C11.9255 2.72126 11.644 2.66001 11.3538 2.62501C10.5095 2.52001 9.70043 2.58126 8.94409 2.80001C9.19913 2.15251 9.83234 1.69751 10.5711 1.69751C11.3098 1.69751 11.943 2.15251 12.1981 2.80001Z" stroke="black" stroke-width="1.31919" stroke-miterlimit="10" stroke-linecap="round" stroke-linejoin="round"/>
<path d="M13.2096 16.6775C13.2096 18.1212 12.0223 19.3025 10.5712 19.3025C9.85008 19.3025 9.18169 19.005 8.70678 18.5325C8.23188 18.06 7.93286 17.395 7.93286 16.6775" stroke="black" stroke-width="1.31919" stroke-miterlimit="10"/>
</svg>
