<svg width="12" height="12" viewBox="0 0 12 12" fill="none" xmlns="http://www.w3.org/2000/svg">
<path d="M0.666667 2.5H4.16667V2.83333H1.33333H0.833333V3.33333V10.6667V11.1667H1.33333H8.66667H9.16667V10.6667V7.83333H9.5V11.3333C9.5 11.3775 9.48244 11.4199 9.45118 11.4512C9.41993 11.4824 9.37754 11.5 9.33333 11.5H0.666667C0.622462 11.5 0.58007 11.4824 0.548815 11.4512C0.51756 11.4199 0.5 11.3775 0.5 11.3333V2.66667C0.5 2.62246 0.51756 2.58007 0.548815 2.54882C0.580072 2.51756 0.622464 2.5 0.666667 2.5ZM10.3131 1.9218L5.47131 6.7642L5.23575 6.52864L10.0769 1.68686L10.9303 0.833333H9.72333H7.16667V0.5H11.5V4.83333H11.1667V2.27533V1.06812L10.3131 1.9218Z" fill="white" stroke="white"/>
</svg>
