<svg width="27" height="27" viewBox="0 0 27 27" fill="none" xmlns="http://www.w3.org/2000/svg">
<path d="M20.295 15.2437C19.8225 15.705 19.5525 16.3687 19.62 17.0775C19.7213 18.2925 20.835 19.1812 22.05 19.1812H24.1875V20.52C24.1875 22.8487 22.2862 24.75 19.9575 24.75H7.0425C4.71375 24.75 2.8125 22.8487 2.8125 20.52V12.9488C2.8125 10.62 4.71375 8.71875 7.0425 8.71875H19.9575C22.2862 8.71875 24.1875 10.62 24.1875 12.9488V14.5688H21.915C21.285 14.5688 20.7113 14.8162 20.295 15.2437Z" fill="white" stroke="#009743" stroke-opacity="0.7" stroke-linecap="round" stroke-linejoin="round"/>
<path d="M2.8125 13.9612V8.82006C2.8125 7.48131 3.63375 6.28876 4.8825 5.81626L13.815 2.44126C15.21 1.91251 16.7063 2.94754 16.7063 4.44379V8.71878" fill="white"/>
<path d="M2.8125 13.9612V8.82006C2.8125 7.48131 3.63375 6.28876 4.8825 5.81626L13.815 2.44126C15.21 1.91251 16.7063 2.94754 16.7063 4.44379V8.71878" stroke="#009743" stroke-opacity="0.7" stroke-linecap="round" stroke-linejoin="round"/>
<path d="M25.3787 15.7164V18.034C25.3787 18.6527 24.8837 19.1589 24.2537 19.1814H22.0487C20.8337 19.1814 19.7199 18.2927 19.6187 17.0777C19.5512 16.3689 19.8212 15.7052 20.2937 15.2439C20.7099 14.8164 21.2837 14.569 21.9137 14.569H24.2537C24.8837 14.5915 25.3787 15.0977 25.3787 15.7164Z" fill="white" stroke="#009743" stroke-opacity="0.7" stroke-linecap="round" stroke-linejoin="round"/>
<path d="M7.875 13.5H15.75" stroke="#009743" stroke-opacity="0.7" stroke-linecap="round" stroke-linejoin="round"/>
</svg>
