<svg width="25" height="25" viewBox="0 0 25 25" fill="none" xmlns="http://www.w3.org/2000/svg">
<path d="M12.3187 24.8187C12 24.8187 11.733 24.7111 11.5177 24.4959C11.3018 24.2799 11.1937 24.0125 11.1937 23.6937V22.5687C8.85 22.3062 6.83925 21.3361 5.1615 19.6584C3.483 17.9799 2.5125 15.9687 2.25 13.625H1.125C0.80625 13.625 0.538875 13.517 0.322875 13.301C0.107625 13.0857 0 12.8187 0 12.5C0 12.1812 0.107625 11.9139 0.322875 11.6979C0.538875 11.4826 0.80625 11.375 1.125 11.375H2.25C2.5125 9.03124 3.483 7.02012 5.1615 5.34162C6.83925 3.66387 8.85 2.69374 11.1937 2.43124V1.30624C11.1937 0.987494 11.3018 0.720119 11.5177 0.504119C11.733 0.288869 12 0.181244 12.3187 0.181244C12.6375 0.181244 12.9049 0.288869 13.1209 0.504119C13.3361 0.720119 13.4437 0.987494 13.4437 1.30624V2.43124C15.7875 2.69374 17.7986 3.66387 19.4771 5.34162C21.1549 7.02012 22.125 9.03124 22.3875 11.375H23.5125C23.8313 11.375 24.0986 11.4826 24.3146 11.6979C24.5299 11.9139 24.6375 12.1812 24.6375 12.5C24.6375 12.8187 24.5299 13.0857 24.3146 13.301C24.0986 13.517 23.8313 13.625 23.5125 13.625H22.3875C22.125 15.9687 21.1549 17.9799 19.4771 19.6584C17.7986 21.3361 15.7875 22.3062 13.4437 22.5687V23.6937C13.4437 24.0125 13.3361 24.2799 13.1209 24.4959C12.9049 24.7111 12.6375 24.8187 12.3187 24.8187ZM12.3187 20.375C14.4937 20.375 16.35 19.6062 17.8875 18.0687C19.425 16.5312 20.1938 14.675 20.1938 12.5C20.1938 10.325 19.425 8.46874 17.8875 6.93124C16.35 5.39374 14.4937 4.62499 12.3187 4.62499C10.1438 4.62499 8.2875 5.39374 6.75 6.93124C5.2125 8.46874 4.44375 10.325 4.44375 12.5C4.44375 14.675 5.2125 16.5312 6.75 18.0687C8.2875 19.6062 10.1438 20.375 12.3187 20.375ZM12.3187 17C11.0813 17 10.0219 16.5594 9.14062 15.6781C8.25937 14.7969 7.81875 13.7375 7.81875 12.5C7.81875 11.2625 8.25937 10.2031 9.14062 9.32187C10.0219 8.44062 11.0813 7.99999 12.3187 7.99999C13.5562 7.99999 14.6156 8.44062 15.4969 9.32187C16.3781 10.2031 16.8188 11.2625 16.8188 12.5C16.8188 13.7375 16.3781 14.7969 15.4969 15.6781C14.6156 16.5594 13.5562 17 12.3187 17ZM12.3187 14.75C12.9375 14.75 13.4674 14.5295 13.9084 14.0885C14.3486 13.6482 14.5687 13.1187 14.5687 12.5C14.5687 11.8812 14.3486 11.3514 13.9084 10.9104C13.4674 10.4701 12.9375 10.25 12.3187 10.25C11.7 10.25 11.1705 10.4701 10.7303 10.9104C10.2893 11.3514 10.0687 11.8812 10.0687 12.5C10.0687 13.1187 10.2893 13.6482 10.7303 14.0885C11.1705 14.5295 11.7 14.75 12.3187 14.75Z" fill="white"/>
</svg>
