<svg width="21" height="21" viewBox="0 0 21 21" fill="none" xmlns="http://www.w3.org/2000/svg">
<path d="M17.0223 0.500802L10.8929 0.469289C10.7458 0.468686 10.6 0.497211 10.464 0.553219C10.328 0.609227 10.2045 0.691609 10.1005 0.795613C9.99645 0.899617 9.91407 1.02318 9.85806 1.15919C9.80205 1.29519 9.77353 1.44094 9.77413 1.58802V1.58802C9.77501 1.88237 9.89232 2.16441 10.1005 2.37255C10.3086 2.58068 10.5906 2.698 10.885 2.69888L16.518 2.72251L0.45398 18.7866C0.245032 18.9955 0.127646 19.2789 0.127646 19.5744C0.127646 19.8699 0.245032 20.1533 0.45398 20.3623V20.3623C0.662928 20.5712 0.946323 20.6886 1.24182 20.6886C1.53732 20.6886 1.82071 20.5712 2.02966 20.3623L18.141 4.25092L18.1331 9.94701C18.1325 10.0941 18.161 10.2398 18.217 10.3758C18.2731 10.5118 18.3554 10.6354 18.4594 10.7394C18.5634 10.8434 18.687 10.9258 18.823 10.9818C18.959 11.0378 19.1048 11.0663 19.2519 11.0657C19.3989 11.0663 19.5447 11.0378 19.6807 10.9818C19.8167 10.9258 19.9403 10.8434 20.0443 10.7394C20.1483 10.6354 20.2306 10.5118 20.2867 10.3758C20.3427 10.2398 20.3712 10.0941 20.3706 9.94701L20.3627 3.84124C20.3622 2.95547 20.01 2.10614 19.3837 1.4798C18.7574 0.853469 17.908 0.501353 17.0223 0.500802V0.500802Z" fill="#EB4335"/>
</svg>
